HIERARCHY
ROOT Hips
{
  OFFSET 0 89.5177 0.535
  CHANNELS 6 Xposition Yposition Zposition Zrotation Xrotation Yrotation
  JOINT Spine
  {
    OFFSET 12.0259 -0.162855 1.69034e-005
    CHANNELS 3 Zrotation Xrotation Yrotation
    JOINT Spine1
    {
      OFFSET 15.3169 -0.0121922 0
      CHANNELS 3 Zrotation Xrotation Yrotation
      JOINT Spine2
      {
        OFFSET 15.3176 -0.0121908 0
        CHANNELS 3 Zrotation Xrotation Yrotation
        JOINT Neck
        {
          OFFSET 19.9142 1.56338 0
          CHANNELS 3 Zrotation Xrotation Yrotation
          JOINT Head
          {
            OFFSET 6.92651 0 0
            CHANNELS 3 Zrotation Xrotation Yrotation
            End Site
            {
              OFFSET 20.7666 0 0
            }
          }
          JOINT LeftShoulder
          {
            OFFSET -6.20654 0.708824 7.28219
            CHANNELS 3 Zrotation Xrotation Yrotation
            JOINT LeftArm
            {
              OFFSET 14.108 0 -1.52588e-005
              CHANNELS 3 Zrotation Xrotation Yrotation
              JOINT LeftForeArm
              {
                OFFSET 28.5802 0 0
                CHANNELS 3 Zrotation Xrotation Yrotation
                JOINT LeftHand
                {
                  OFFSET 27.092 0 0
                  CHANNELS 3 Zrotation Xrotation Yrotation
                  End Site
                  {
                    OFFSET 9.55928 -0.186424 0.145352
                  }
                }
              }
            }
          }
          JOINT RightShoulder
          {
            OFFSET -6.20654 0.708866 -7.28218
            CHANNELS 3 Zrotation Xrotation Yrotation
            JOINT RightArm
            {
              OFFSET 14.108 0 1.52588e-005
              CHANNELS 3 Zrotation Xrotation Yrotation
              JOINT RightForeArm
              {
                OFFSET 28.5802 0 0
                CHANNELS 3 Zrotation Xrotation Yrotation
                JOINT RightHand
                {
                  OFFSET 27.092 0 0
                  CHANNELS 3 Zrotation Xrotation Yrotation
                  End Site
                  {
                    OFFSET 9.55929 -0.186417 -0.145354
                  }
                }
              }
            }
          }
        }
      }
    }
  }
  JOINT LeftUpLeg
  {
    OFFSET 0.005 -0.535 8.837
    CHANNELS 3 Zrotation Xrotation Yrotation
    JOINT LeftLeg
    {
      OFFSET 39.9035 0 0
      CHANNELS 3 Zrotation Xrotation Yrotation
      JOINT LeftFoot
      {
        OFFSET 39.6689 0 0
        CHANNELS 3 Zrotation Xrotation Yrotation
        JOINT LeftToe
        {
          OFFSET 10.1624 13.6296 0
          CHANNELS 3 Zrotation Xrotation Yrotation
          End Site
          {
            OFFSET 8.38147 0 0
          }
        }
      }
    }
  }
  JOINT RightUpLeg
  {
    OFFSET 0.005 -0.535 -8.837
    CHANNELS 3 Zrotation Xrotation Yrotation
    JOINT RightLeg
    {
      OFFSET 39.9035 0 0
      CHANNELS 3 Zrotation Xrotation Yrotation
      JOINT RightFoot
      {
        OFFSET 39.6689 0 0
        CHANNELS 3 Zrotation Xrotation Yrotation
        JOINT RightToe
        {
          OFFSET 10.1624 13.6296 0
          CHANNELS 3 Zrotation Xrotation Yrotation
          End Site
          {
            OFFSET 8.38147 0 0
          }
        }
      }
    }
  }
}
MOTION
Frames:	12
Frame Time:	0.0333333
512.406 85.9687 -206.835 123.246 -79.1755 32.232 -1.50236 -0.203092 -0.522433 -3.00653 -0.391945 -1.04983 -3.00653 -0.391945 -1.04984 -8.30748e-012 -9.0191e-006 -5.27751e-005 8.55187 16.3356 -10.8636 179.522 -11.4901 -92.3979 -30.7663 -54.941 -5.04765 -1.06512e-005 -6.36111e-015 -7.95139e-016 -35.2307 -21.3003 -23.8455 179.36 5.66938 96.4509 62.6606 65.0134 -71.583 -1.2075 0 -0 -30.5473 17.1056 20.0207 -16.4873 -0.743805 177.926 -32.7903 1.59028e-015 1.19271e-015 22.9985 3.89801 2.37877 90 -3.72721e-017 -3.18055e-015 -15.6364 -4.53584 -176.262 -30.8463 0 -7.95139e-016 20.862 -3.25258 -3.91688 90 2.51188e-020 -0 
512.379 85.9667 -206.848 123.464 -79.1549 32.4573 -1.50227 -0.205701 -0.521086 -3.00637 -0.3972 -1.04721 -3.00637 -0.397199 -1.04722 -8.30669e-012 -9.0191e-006 -5.27751e-005 8.67737 16.2745 -10.7629 179.524 -11.5314 -92.3782 -30.8067 -55.0029 -5.05421 -9.76233e-006 -6.36111e-015 -2.38542e-015 -35.3873 -21.367 -23.9756 179.345 5.75218 96.504 62.6561 65.0352 -71.6626 -1.22652 1.59028e-015 -3.18055e-015 -30.6761 17.0656 20.0508 -16.5131 -0.678899 177.907 -32.7851 -3.18055e-015 -1.19271e-015 23.034 3.92448 2.39628 90 1.2424e-017 2.38542e-015 -15.6881 -4.56226 -176.295 -30.8679 7.95139e-016 7.95139e-016 20.8783 -3.27217 -3.89966 90 -4.92897e-021 1.59028e-015 
512.367 85.9634 -206.852 123.777 -79.0964 32.7445 -1.50167 -0.228763 -0.522178 -3.02288 -0.443219 -1.04946 -3.02288 -0.443218 -1.04947 -8.30748e-012 -9.0191e-006 -5.27751e-005 8.76375 16.2469 -10.6638 179.516 -11.6174 -92.405 -30.7883 -54.896 -5.08265 -9.55771e-006 -1.27222e-014 -1.59028e-015 -35.3574 -21.2791 -23.9163 179.341 5.79616 96.4987 62.9242 65.1761 -71.9968 -1.1857 0 1.59028e-015 -30.8177 17.0234 20.0629 -16.6321 -0.492697 177.953 -32.8839 3.18055e-015 3.97569e-016 23.2301 4.09829 2.39012 90 1.2424e-017 -1.59028e-015 -15.7569 -4.51613 -176.278 -30.8646 0 3.97569e-016 20.8904 -3.21963 -3.8893 90 1.2512e-020 -0 
512.343 85.9606 -206.877 123.861 -79.1073 32.8373 -1.50056 -0.234384 -0.524191 -3.01071 -0.454453 -1.05418 -3.01071 -0.454453 -1.05419 -8.30788e-012 -9.0191e-006 -5.27751e-005 8.85666 16.2469 -10.6945 179.521 -11.6231 -92.3759 -30.6365 -54.7006 -5.06539 -9.34552e-006 0 -1.59028e-015 -35.2566 -21.2881 -23.8487 179.324 5.89168 96.5536 63.2953 65.2247 -72.4226 -1.27231 -3.18055e-015 1.59028e-015 -30.6792 16.682 19.8558 -16.6083 -0.545447 177.92 -32.8506 1.59028e-015 3.97569e-016 23.1833 4.04669 2.40872 90 1.2424e-017 -1.59028e-015 -15.7601 -4.488 -176.299 -30.8847 7.95139e-016 -3.97569e-016 20.9159 -3.22348 -3.87214 90 1.44078e-020 -0 
512.332 85.9579 -206.909 123.953 -79.1077 32.9028 -1.50006 -0.244182 -0.526617 -3.00234 -0.474022 -1.05927 -3.00234 -0.474022 -1.05928 -8.30669e-012 -9.0191e-006 -5.27751e-005 8.82921 16.2526 -10.6883 179.501 -11.6961 -92.4629 -30.4776 -54.9289 -4.88506 -9.12667e-006 -3.18055e-015 1.59028e-015 -35.4042 -21.2192 -23.9352 179.317 6.01012 96.4978 62.4681 65.1583 -71.7775 -1.34586 0 1.59028e-015 -30.725 16.4216 19.6337 -16.6071 -0.453919 177.954 -32.8874 -1.59028e-015 7.95139e-016 23.2838 4.09993 2.41359 90 2.48481e-017 1.59028e-015 -15.7305 -4.4308 -176.268 -30.8597 0 1.98785e-015 20.9352 -3.19315 -3.86436 90 2.16116e-020 -6.36111e-015 
512.317 85.9553 -206.949 124.066 -79.1134 33.0207 -1.50029 -0.25424 -0.541858 -2.99608 -0.493766 -1.09 -2.99608 -0.493766 -1.09001 -8.30748e-012 -9.0191e-006 -5.27751e-005 8.74656 16.4126 -10.7183 179.485 -11.769 -92.5216 -30.2678 -54.8248 -4.71519 -8.90209e-006 -3.18055e-015 -7.95139e-016 -35.2562 -21.109 -23.7784 179.324 6.09911 96.3322 61.1 65.1713 -70.5676 -1.19288 0 -3.18055e-015 -30.9368 15.9543 19.4309 -16.5775 -0.466038 177.942 -32.859 0 1.59028e-015 23.2752 4.08205 2.42085 90 0 -3.18055e-015 -15.7161 -4.39449 -176.271 -30.8598 0 -0 20.9665 -3.16943 -3.85833 90 2.12325e-020 -1.59028e-015 
512.309 85.9532 -206.989 124.217 -79.0901 33.1899 -1.50044 -0.257107 -0.553649 -3.00333 -0.499154 -1.11367 -3.00333 -0.499153 -1.11368 -8.30748e-012 -9.0191e-006 -5.27751e-005 8.67154 16.5529 -10.7163 179.48 -11.7234 -92.5558 -29.9968 -54.7184 -4.51254 -8.67271e-006 -3.18055e-015 -7.95139e-016 -35.1955 -20.9747 -23.6729 179.325 6.06444 96.3576 60.6224 64.9348 -70.0033 -1.30805 0 -0 -31.0641 16.0545 19.6708 -16.5701 -0.505767 177.911 -32.8134 1.59028e-015 -3.97569e-016 23.236 4.04964 2.42718 90 2.48481e-017 7.95139e-016 -15.7299 -4.42596 -176.3 -30.8648 7.95139e-016 -7.95139e-016 20.9982 -3.1908 -3.85434 90 9.70628e-020 -0 
512.294 85.9446 -207.036 124.392 -79.0915 33.3372 -1.49226 -0.261728 -0.558609 -2.98705 -0.508344 -1.12367 -2.98705 -0.508344 -1.12368 -8.30788e-012 -9.0191e-006 -5.27751e-005 8.53308 16.7032 -10.7358 179.488 -11.7761 -92.5073 -29.823 -54.3844 -4.37357 -8.43944e-006 9.54166e-015 2.38542e-015 -35.3153 -21.2401 -23.9006 179.328 6.12352 96.2714 60.7833 65.0303 -70.1091 -1.25301 0 -1.59028e-015 -31.0796 16.1381 19.6886 -16.5843 -0.320538 177.968 -32.9022 1.59028e-015 3.97569e-016 23.4488 4.18786 2.42647 90 3.72721e-017 -0 -15.7225 -4.44301 -176.281 -30.8697 7.95139e-016 1.19271e-015 21.0305 -3.22017 -3.84757 90 -7.58303e-022 -0 
512.289 85.9417 -207.072 124.579 -79.1397 33.5274 -1.47822 -0.257205 -0.557306 -2.9589 -0.499473 -1.12089 -2.9589 -0.499473 -1.1209 -8.30768e-012 -9.0191e-006 -5.27751e-005 8.37963 16.8481 -10.8059 179.501 -11.7646 -92.4492 -29.5512 -54.409 -4.19225 -8.2032e-006 9.54166e-015 7.95139e-016 -35.1967 -21.1739 -23.7601 179.326 6.10704 96.3055 61.4774 65.1237 -70.6279 -1.16091 -3.18055e-015 -3.18055e-015 -31.095 16.3671 19.8585 -16.5404 -0.433849 177.947 -32.8523 1.59028e-015 1.59028e-015 23.363 4.08348 2.42373 90 1.2424e-017 -1.59028e-015 -15.7015 -4.40652 -176.274 -30.8694 0 7.95139e-016 21.0525 -3.23315 -3.84711 90 9.09964e-021 3.18055e-015 
512.292 85.9341 -207.094 124.819 -79.2144 33.7581 -1.45452 -0.247463 -0.566312 -2.91146 -0.479996 -1.13855 -2.91146 -0.479996 -1.13856 -8.30748e-012 -9.0191e-006 -5.27751e-005 8.17011 17.001 -10.7935 179.502 -11.7581 -92.445 -29.2307 -54.3158 -3.98024 -7.96493e-006 0 -7.95139e-016 -35.0906 -21.1952 -23.7153 179.337 6.02288 96.289 62.0004 65.1088 -70.9486 -1.13634 -1.59028e-015 3.18055e-015 -31.1337 16.4916 19.9628 -16.5246 -0.342545 177.981 -32.8842 0 -3.97569e-016 23.4072 4.08983 2.42133 90 0 -0 -15.7044 -4.36066 -176.249 -30.8947 -1.59028e-015 1.19271e-015 21.0679 -3.24783 -3.85054 90 -2.31283e-020 1.59028e-015 
512.297 85.9218 -207.109 125.139 -79.2768 34.0635 -1.42349 -0.231949 -0.575096 -2.84926 -0.449065 -1.1556 -2.84926 -0.449065 -1.15561 -8.30708e-012 -9.0191e-006 -5.27751e-005 7.92044 17.0804 -10.7892 179.507 -11.7094 -92.43 -28.9634 -54.4892 -3.82219 -7.72554e-006 1.27222e-014 -0 -35.2152 -21.0716 -23.691 179.343 5.999 96.2677 62.4435 65.1228 -71.2748 -0.966278 -1.59028e-015 -3.18055e-015 -31.3335 16.5124 19.698 -16.552 -0.260846 178.02 -32.9505 3.18055e-015 7.95139e-016 23.4649 4.09431 2.42021 90 0 7.95139e-016 -15.7403 -4.41036 -176.235 -30.9426 -7.95139e-016 -0 21.0853 -3.34923 -3.8567 90 1.15641e-020 -0 
512.302 85.9108 -207.104 125.488 -79.3246 34.3716 -1.39396 -0.221291 -0.570591 -2.79008 -0.428162 -1.14622 -2.79008 -0.428162 -1.14623 -8.30748e-012 -9.0191e-006 -5.27751e-005 7.62266 17.2568 -10.8604 179.512 -11.6551 -92.4145 -28.4624 -54.4483 -3.48222 -7.48595e-006 6.36111e-015 7.95139e-016 -35.1552 -20.9311 -23.5388 179.351 5.92559 96.2609 62.5036 65.0565 -71.2213 -0.924265 -4.77083e-015 3.18055e-015 -31.2941 16.4858 19.4944 -16.6092 -0.218977 178.071 -33.0224 1.59028e-015 7.95139e-016 23.4837 4.06985 2.42317 90 -1.2424e-017 -7.95139e-016 -15.7849 -4.3806 -176.183 -30.969 -7.95139e-016 1.19271e-015 21.0882 -3.3672 -3.86087 90 8.91006e-021 1.59028e-015 
